<?xml version="1.0" encoding="UTF-8"?>
<svg id="Layer_1" data-name="Layer 1" xmlns="http://www.w3.org/2000/svg" viewBox="0 0 1000 1000">
  <defs>
    <style>
      .cls-1 {
        fill: #fff;
      }

      .cls-2 {
        fill: #e88924;
      }

      .cls-3 {
        fill: #066879;
      }
    </style>
  </defs>
  <rect class="cls-2" x="27.2" y="26.33" width="947.9" height="947.9" rx="150.88" ry="150.88"/>
  <g>
    <path class="cls-3" d="M498.91,783.65c-41.58,0-79.88-6.99-114.92-20.96-35.05-13.98-65.37-33.76-90.99-59.38-25.63-25.62-45.56-55.75-59.82-90.43-14.26-34.66-21.39-72.44-21.39-113.33s7.13-79.3,21.39-113.72c14.25-34.4,34.19-64.42,59.82-90.04,25.62-25.62,55.94-45.41,90.99-59.38,35.04-13.98,73.1-20.95,114.2-20.95s79.75,6.98,114.55,20.95c34.8,13.98,64.99,33.76,90.62,59.38,25.61,25.62,45.55,55.63,59.82,90.04,14.25,34.42,21.39,72.33,21.39,113.72s-7.14,78.66-21.39,113.33c-14.26,34.68-34.21,64.82-59.82,90.43-25.63,25.62-55.82,45.41-90.62,59.38-34.8,13.98-72.75,20.96-113.83,20.96Z"/>
    <g>
      <path class="cls-1" d="M698.87,489.08c2.15,2.16,1.81,14.1,1.59,17.7-1.41,22.32-13.75,40.18-35.92,45.72-17.39,4.35-49.6-1.16-63.72,9.26-7.87,5.81-11.91,29.51-11.84,38.99.04,4.79,3.42,15.95,1.98,19.11-.62,1.36-11.14,11.35-13.12,12.93-3.61,2.88-15.14,10.59-19.09,11.84-.63.2-2.02.34-1.83-.59,17.3-16.67,33.42-52.54,6.62-68.48-28.7-17.07-60.18,20.68-81.18,34.74-19.59,13.11-41.69,21.06-65.22,23.21,24.99-43.1,42.25-90.82,67.04-133.96,10.01-17.43,25.65-38.75,39.28-53.49,2.09-2.26,7.08-4.56,8.08-6.76,1.68-3.69.15-9.92.65-14.19,1.08-9.2,2.82-17.25,6.34-25.82,1.2-2.91,7.47-16.89,11-15.09,2.42,1.23,14.74,25.12,18.24,30.04,14.37,20.17,22.63,15.44,43.56,22,18.5,5.8,16.08,13.16,27.19,26,9.25,10.7,22.76,20.88,36.84,23.78,4.82.99,21.58,1.15,23.52,3.08Z"/>
      <path class="cls-1" d="M652.17,605.06c10.67-15.23,30.05-21.62,29.69,3.71,7.69-11.85,26.19-8.37,23.23,6.51-1.26,6.35-15.93,24.19-20.8,29.95-30.45,35.97-74.21,64.12-119.69,76.99-103.27,29.22-214.09-10.47-273.63-99.23l22.66,11.97c57.8,25.31,128.26,22.75,180.59-14.05,15.77-11.09,37.28-37.01,58.31-33.1,9.47,1.76,10.73,14.49,8.75,22.23-1.47,5.73-12.94,21.24-17.34,25.96-11.54,12.38-27.05,20.55-41.45,29.06,35.25,9.84,77.09-7.24,100.15-34.68,8.27-9.84,21.93-39.66,32.25-43.2,12.85-4.4,19.05,6.41,17.28,17.87Z"/>
      <path class="cls-1" d="M401.04,438.07l-1.22-30.93c3.5-3.41,17.83,12.01,20.42,14.83,19.48,21.18,34.53,46.18,46.28,72.38l-71.14,139.2-32.62-5.03c-1.23-1.28,2.39-15.7,3.02-18.52,2.14-9.71,9.08-27.55,7.76-36.18-1.15-7.48-14.44-31.02-20.78-34.88-5.41-3.29-14.61-2.99-20.63-5.35-6.05-2.37-11.65-9.7-14.19-15.49-9.1-20.71,5.71-18.12,16.8-29.44,7.01-7.15,13.39-24.47,18.13-28.87,4.04-3.75,22.45-8,23.44-9.36-3.98-6.82-11.85-40.01-4.97-43.96,4.51-2.6,24.97,28.31,29.7,31.61Z"/>
      <path class="cls-1" d="M559.39,297.06c-5.22,6.03-34.93,18.69-27.3,29.16,2.72,3.73,13.76,4.2,18.58,7.38,3.35,2.21,4.45,5.89,6.85,8,2.31,2.02,5.82,2.47,7.3,3.61,3.94,3.02-5.34,3.2-7.81,4.51-2.53,1.34-4.32,5.04-7.06,6.54-3.19,1.75-7.53,1.52-10.3,3.31-2.13,1.38-2.63,4.12-4.38,5.51-5.73,4.52-13.17,7.85-20.34,9.35-21.6,4.5-35.52-6.31-56.2-4.25-22.89,2.28-41.86,19.17-61.32,22.81-1.53.29-5.05.75-4.98-1.31.16-4.73,59.56-33.7,66.75-39.58-15.41-18.21-23.65-42.03-13.57-64.94,5.68,7.46,10.37,15.11,18.13,20.81,11.12,8.16,25.38,10.3,37.13,17.39l1.63-.39c12.78-18.1,33.94-32.4,56.9-27.91Z"/>
    </g>
  </g>
</svg>